<?xml version="1.0" encoding="UTF-8"?>
<svg xmlns="http://www.w3.org/2000/svg" xmlns:xlink="http://www.w3.org/1999/xlink" width="112px" height="64px" viewBox="0 0 111 64" version="1.1">
<g id="surface1">
<path d="M 39.3125 2.589844 L 1.601562 2.589844 L 0.496094 17.101562 L 1.671875 17.101562 C 2.515625 6.234375 3.445312 4.332031 13.570312 4.332031 C 14.746094 4.332031 16.652344 4.332031 17.175781 4.332031 C 18.425781 4.527344 18.425781 5.324219 18.425781 6.835938 L 18.425781 42.550781 C 18.425781 44.921875 18.226562 45.644531 12.726562 45.644531 L 10.871094 45.644531 L 10.871094 47.230469 C 14.003906 47.171875 17.269531 47.105469 20.472656 47.105469 C 23.667969 47.105469 26.941406 47.171875 30.074219 47.230469 L 30.074219 45.644531 L 28.25 45.644531 C 22.832031 45.644531 22.636719 44.921875 22.636719 42.550781 L 22.636719 6.835938 C 22.636719 5.386719 22.636719 4.601562 23.8125 4.332031 L 27.394531 4.332031 C 37.390625 4.332031 38.367188 6.222656 39.210938 17.101562 L 40.386719 17.101562 "/>
<path d="M 72.085938 44.941406 L 70.910156 44.941406 C 69.480469 54.671875 68.636719 59.960938 57.148438 59.960938 L 48.082031 59.960938 C 45.472656 59.960938 45.351562 59.628906 45.351562 57.371094 L 45.351562 39.03125 L 51.511719 39.03125 C 57.671875 39.03125 58.261719 41.300781 58.261719 46.839844 L 59.308594 46.839844 L 59.308594 29.769531 L 58.261719 29.769531 C 58.261719 35.214844 57.671875 37.441406 51.511719 37.441406 L 45.351562 37.441406 L 45.351562 21.179688 C 45.351562 18.964844 45.472656 18.632812 48.082031 18.632812 L 57.011719 18.632812 C 67.117188 18.632812 68.292969 22.667969 69.210938 31.34375 L 70.386719 31.34375 L 68.820312 16.832031 L 35.75 16.832031 L 35.75 18.632812 C 40.375 18.632812 41.117188 18.632812 41.117188 21.582031 L 41.117188 56.992188 C 41.117188 59.941406 40.386719 59.941406 35.75 59.941406 L 35.75 61.527344 L 69.738281 61.527344 "/>
<path d="M 89.691406 22.402344 L 99.355469 8.367188 C 100.320312 6.988281 102.289062 4.152344 107.648438 4.082031 L 107.648438 2.5 C 106.152344 2.621094 103.671875 2.621094 102.105469 2.621094 C 99.953125 2.621094 97.273438 2.621094 95.648438 2.5 L 95.648438 4.082031 C 97.738281 4.28125 98.253906 5.59375 98.253906 6.652344 C 98.253906 7.433594 97.933594 7.964844 97.46875 8.617188 L 88.847656 21.179688 L 79.183594 6.96875 C 78.730469 6.253906 78.667969 6.046875 78.667969 5.851562 C 78.667969 5.261719 79.378906 4.144531 81.542969 4.082031 L 81.542969 2.5 C 79.449219 2.621094 76.257812 2.621094 74.105469 2.621094 C 72.414062 2.621094 69.148438 2.621094 67.570312 2.5 L 67.570312 4.082031 C 71.160156 4.082031 72.332031 4.21875 73.773438 6.253906 L 86.375 24.84375 L 75.011719 41.519531 C 72.210938 45.597656 67.964844 45.667969 66.71875 45.667969 L 66.71875 47.253906 C 68.210938 47.128906 70.695312 47.128906 72.261719 47.128906 C 74.023438 47.128906 77.09375 47.128906 78.71875 47.253906 L 78.71875 45.667969 C 76.699219 45.472656 76.113281 44.15625 76.113281 43.101562 C 76.113281 42.25 76.433594 41.785156 76.765625 41.320312 L 87.210938 26.003906 L 98.570312 42.78125 C 99.085938 43.507812 99.085938 43.703125 99.085938 43.898438 C 99.085938 44.414062 98.5 45.542969 96.214844 45.679688 L 96.214844 47.261719 C 98.304688 47.140625 101.5 47.140625 103.652344 47.140625 C 105.34375 47.140625 108.605469 47.140625 110.191406 47.261719 L 110.191406 45.679688 C 106.007812 45.679688 105.347656 45.359375 104.050781 43.507812 "/>
</g>
</svg>
