<svg width="747" height="324" viewBox="0 0 747 324" fill="none" xmlns="http://www.w3.org/2000/svg">
<path d="M9 149C9 133.536 21.536 121 37 121H273C288.464 121 301 133.536 301 149V190C301 205.464 288.464 218 273 218H37C21.536 218 9 205.464 9 190V149Z" fill="white"/>
<path d="M446 246C446 230.536 458.536 218 474 218H710C725.464 218 738 230.536 738 246V287C738 302.464 725.464 315 710 315H474C458.536 315 446 302.464 446 287V246Z" fill="white"/>
<path d="M388 37C388 21.536 400.536 9 416 9H652C667.464 9 680 21.536 680 37V78C680 93.464 667.464 106 652 106H416C400.536 106 388 93.464 388 78V37Z" fill="white"/>
<path d="M445.5 267C404 267 385 232.5 375 222.5C342 178.5 324.5 172 301 172C325.069 172 342.993 178.5 376.792 222.5C387.035 232.5 406.495 267 449 267M300 171.921C328 171.921 338.627 143.5 345 113C352 79.5 356.103 56.6554 390.5 57M37 218H273C288.464 218 301 205.464 301 190V149C301 133.536 288.464 121 273 121H37C21.536 121 9 133.536 9 149V190C9 205.464 21.536 218 37 218ZM474 315H710C725.464 315 738 302.464 738 287V246C738 230.536 725.464 218 710 218H474C458.536 218 446 230.536 446 246V287C446 302.464 458.536 315 474 315ZM416 106H652C667.464 106 680 93.464 680 78V37C680 21.536 667.464 9 652 9H416C400.536 9 388 21.536 388 37V78C388 93.464 400.536 106 416 106Z" stroke="white" stroke-width="17"/>
</svg>
